<?xml version="1.0" encoding="utf-8"?>
<!-- Generator: Adobe Illustrator 21.0.0, SVG Export Plug-In . SVG Version: 6.00 Build 0)  -->
<svg version="1.1" id="Layer_1" xmlns="http://www.w3.org/2000/svg" xmlns:xlink="http://www.w3.org/1999/xlink" x="0px" y="0px"
	 viewBox="0 0 121.5 97.7" style="enable-background:new 0 0 121.5 97.7;" xml:space="preserve">
<style type="text/css">
	.st0{fill:#FFFFFF;}
</style>
<g>
	<g>
		<path class="st0" d="M50.7,18.2c-3,2.9-4.7,6.8-4.8,11c-0.2,8.6,6.7,15.8,15.3,16c4.2,0.1,8.1-1.5,11.1-4.3c3-2.9,4.7-6.8,4.8-11
			c0.2-8.6-6.7-15.8-15.3-16C57.7,13.8,53.7,15.3,50.7,18.2z M61.2,43.9c-8-0.2-14.3-6.8-14.1-14.8c0.1-3.9,1.7-7.5,4.5-10.1
			c2.8-2.7,6.4-4.1,10.3-4c8,0.2,14.3,6.8,14.1,14.8c-0.1,3.9-1.7,7.5-4.5,10.1C68.7,42.6,65.1,44,61.2,43.9z"/>
		<path class="st0" d="M46.9,14.3c-4.1,3.9-6.4,9.2-6.5,14.8c-0.3,11.6,9,21.3,20.7,21.6c11.6,0.3,21.3-9,21.6-20.7l0,0
			c0.1-5.6-2-11-5.9-15.1c-3.9-4.1-9.2-6.4-14.8-6.5C56.4,8.3,51,10.4,46.9,14.3z M61.1,49.7c-11.1-0.2-20-9.5-19.7-20.6
			c0.1-5.4,2.3-10.4,6.2-14.1c3.9-3.7,9-5.7,14.4-5.6c5.4,0.1,10.4,2.3,14.1,6.2c3.7,3.9,5.7,9,5.6,14.4l0,0
			C81.4,41.1,72.2,49.9,61.1,49.7z"/>
		<path class="st0" d="M65.7,42.1c-7.8,1.4-14.1-1.6-15.3-5.4c-0.7-2.4,0.3-3,0.5-4.7c-1.4,0.7-1.6-1.2-0.4-1.3
			c1.3-0.2,1.8,1.2,1.2,2.9c-0.9,2.5,0.7,3.7,1.1,3.6c0-0.1,0.2-0.5,0.3-0.6c-1.1-1.4-0.6-3.4,1.2-3.5c0.7-0.1,0.7,0.5,0.2,0.5
			c-1.4,0.2-1.3,1.8-0.7,2c0.1,0,0.2,0,0.3-0.1c0-0.3,0.2-0.8,0.6-0.7c0.8,0.2,0.5,1.2-0.1,1.3c-0.2,0.6-0.6,1.5-0.5,2
			c0.1,0.5,0.4,0.5,0.7,0.3c0.2-0.2,0.3-0.7,0.4-1.2c-0.1-0.6,0.1-1,0.6-0.8c0.3,0.1,0.4,0.7,0,1.1c0,0.5-0.3,1.1-0.2,1.4
			c0,0.4,0.6,0.4,0.8,0.1c0.2-0.2,0.4-1.5,0.5-1.8c-0.3-0.3-0.2-1,0.4-1.1c0.7-0.1,0.5,0.9,0.3,1.1c0.2,0.7-0.1,1.6,0,1.9
			c0.1,0.3,0.7,0.4,0.9,0.1c0.2-0.3-0.1-0.8,0.1-1.5c-0.2-0.6,0-1,0.4-1.1c0.8-0.1,0.6,0.6,0.4,1.1c0,0.5,0.1,1.1,0.3,1.6
			c0.1,0.3,0.6,0.4,0.8,0c0.1-0.2-0.1-0.9-0.2-1.4c-0.3-0.8-0.1-1,0.3-1c0.3,0,0.7,0.1,0.6,0.9c0.2,0.5,0.3,1.2,0.5,1.6
			c0.1,0.3,0.5,0.4,0.6,0c0.1-0.3-0.1-0.7-0.4-1.3c-0.6-0.5-0.1-1,0.3-1c0.3,0,0.8,0.1,0.7,0.9c0.2,0.5,0.3,1,0.4,1.3
			c0.1,0.3,0.6,0.4,0.8,0.1c0.2-0.2-0.2-0.6-0.3-1c-0.4-0.4-0.3-1,0.1-1c0.2,0,0.7,0,0.7,0.7c0.1,0.3,0.1,0.7,0.4,1
			c0.3,0.4,0.6,0.3,0.8-0.1c0.2-0.4-0.8-1.5-0.1-1.5c0.8-0.1,0.9,0.9,1.1,1.2c0.2,0.2,0.4,0.1,0.6,0c0.2-0.2-0.3-0.8,0-1
			c0.7-0.3,0.7,0.5,1.3,0.5c2.3,0,4.1-3.8,3.9-4.8c-0.8-0.5-0.5-1.6,0.1-1.6c1.6,0,1.4,2.2,0.2,4.8C71.3,40,67.4,41.8,65.7,42.1z"/>
		<path class="st0" d="M69.1,24.1C69.1,24,69.1,24,69.1,24.1c0.3-1.4,0.6-2,0.7-3.4c0-0.3-0.2-0.6-0.4-0.6c-0.8-0.2-1.2-0.2-1.6-0.2
			c0,0-0.1,0-0.1-0.1c-0.1-0.2-0.2-0.8-0.2-1.1c0.5-1-0.4-1.4-1.2-1.4c-0.5,0-1.1,0.2-1.2,0.6c-0.1,0.8,0.8,1.1,1.1,1.1
			c0.1,0.1,0.2,0.7,0.2,0.9c0,0,0,0.1-0.1,0.1c-1.4,0-3.2,0.3-4.1,0.3c-0.1,0-0.2-0.1-0.2-0.1c-0.2-0.5-0.9-2.7,0.5-2.7
			c0.8,0,1.5-0.6,0.7-1.1c-0.2-0.1-1.2-0.3-1.8-0.2c-0.5,0.1-0.7,0.6-0.6,1.1c0.1,0.7-1.7,0.8-2.2,0.6c-0.4-0.2-0.8-0.6-1-0.9
			c-0.3-0.6-0.9-0.1-0.8,0.2c0.7,2.2,3.1,1.9,3.7,1.9c0,0,0.1,0,0.1,0.1c0.2,0.8,0.6,1.7,0.6,2c-0.3,0.3-0.2,1,0.2,1.2
			c-0.5,0.5-0.7,2.2-0.7,3.6c0.1,1.8,0.8,3.6,2,3.4c1.5-0.2,0.9-3.6,1.2-3.9c0.2-0.1,0.7-0.1,0.8-0.1c0,0,0.1,0,0.1,0.1
			c-0.1,1.3-0.4,3.4-0.5,4c-0.1,0.6-0.1,0.9,0.2,1.4c0.3,0.6,0.9,2.5,0.2,4.4c0,0.1-0.1,0.1-0.1,0.1c-0.6,0.1-0.9,0.3-1.2,0.5
			c-0.2,0.2-0.5,0.5-0.3,0.7c0.3,0.2,1.9,0.1,2.4-0.6c0,0,0-0.1,0.1-0.1c0.2-0.5,0.4-0.9,0.6-1.2c0.8-1.5,0.9-3.3-0.2-4.1
			c-0.3-0.2-0.6-0.4-0.3-1c0.6-1.1,0.6-2.3,0.7-3.3c0-0.4,0.7-0.6,1-0.3c0.6,1.5,0.1,2.8,0.1,3.3c0,0.5,0.2,0.8,0.3,1.1
			c0.4,2,0.2,3.6-0.2,5.6c0,0,0,0.1-0.1,0.1c-0.5,0.2-0.7,0.3-1,0.5c-0.3,0.2-0.4,0.5-0.3,0.6c0.4,0.4,2.1,0,2.3-0.5
			c0.3-1.2,2.7-4.1,1-6c-0.7-0.8-0.7-0.5-0.8-0.9c0-0.2,0.5-1.3,0.6-2.2c0.1-0.9-0.5-1.8-0.3-2.3c0,0,0,0,0.1,0
			c0.2,0,0.8,0.2,1.2,0.4c0.1,0.1,0.3,0,0.3-0.4C70.6,24.6,69.3,24.1,69.1,24.1z M62.4,27.8c-0.7,0-0.9-4.2-0.2-4.2
			C62.8,23.6,62.8,27.8,62.4,27.8z M64.6,21.6c0.1,0.2,0.3,1.2,0.3,1.7c0,0.2,0,0.5-0.2,0.5c-0.3,0.1-0.8,0.1-1.1,0
			c-0.3-0.1-0.1-1.4-1.3-1.6c0.2-0.1,0.2-0.2,0.3-0.5c0-0.2,0.2-0.4,0.5-0.4c0.5-0.1,0.9-0.1,1-0.1C64.4,21.2,64.6,21.3,64.6,21.6z
			 M67.8,23.4c-0.3,0.2-1.1,0.3-1.5,0.1c-0.3-0.2-0.4-1.7-0.2-2.1c0.2-0.4,1.9-0.4,2.1-0.1C68.3,21.5,68,23.2,67.8,23.4z"/>
		<path class="st0" d="M60.2,25.5c-0.1-1.6-1.6-3.7-3.8-4.1c-2.4-0.4-6,0.6-6.4,4c-0.4,3.6,2.3,6.3,5.6,6
			C59.2,31.2,60.4,27.8,60.2,25.5z M58,28.1c0.2,0,0.6,0,0.7,0.3c0.1,0.3-0.7,1.2-1.1,1.3c-0.2,0.1-0.6-0.3-0.5-0.6
			C57.2,28.8,57.9,28.1,58,28.1z M59.3,26.9c-0.2,0.1-0.5,0.1-0.7-0.1c-0.1-0.2-0.1-1.3-0.1-1.5c0.1-0.2,0.5-0.3,0.7-0.2
			C59.4,25.3,59.6,26.7,59.3,26.9z M58.6,23.9c0,0.2-0.4,0.3-0.6,0.3c-0.2,0-1-0.7-1.1-0.9c-0.1-0.3,0.1-0.5,0.3-0.5
			C57.8,22.7,58.6,23.6,58.6,23.9z M55.8,22.3c0.1,0.2,0.2,0.4,0,0.6c-0.1,0.2-1.4,0.2-1.6,0.2c-0.4,0-0.6-0.4-0.5-0.6
			C54,22.1,55.6,22,55.8,22.3z M56.8,24.7c0,0.3-1.2,0.9-1.4,0.8c-0.3-0.2-1.1-1.3-0.9-1.4C55,23.4,56.8,24.1,56.8,24.7z M53.6,24.4
			c0.2,0,0.9,1.1,0.7,1.5c-0.1,0.3-1.4,0.8-1.6,0.7C52.4,26.2,52.7,24.6,53.6,24.4z M53.3,27.6c0-0.2,1.1-0.9,1.5-0.8
			c0.3,0.1,0.9,1.5,0.6,1.6C54.6,28.8,53.3,28,53.3,27.6z M56.6,27.8c-0.3-0.1-1.1-1.2-0.8-1.5c0.3-0.3,1.4-0.9,1.6-0.7
			C58.1,26.3,57.3,28.1,56.6,27.8z M51.9,24.6c-0.3,0.2-0.6-0.1-0.6-0.4c0-0.4,0.8-1.3,1.2-1.2c0.2,0,0.4,0.3,0.4,0.6
			C52.8,23.8,52.1,24.5,51.9,24.6z M51.7,27.1c-0.2,0.2-0.5,0.3-0.7,0.2c-0.3-0.2-0.4-1.1-0.2-1.5c0.1-0.3,0.7-0.4,0.9-0.1
			C51.7,25.9,51.8,27,51.7,27.1z M51.5,28.7c0-0.3,0.4-0.6,0.7-0.5c0.2,0.1,1,0.8,1,1c0.1,0.3-0.2,0.6-0.4,0.6
			C52.4,29.8,51.6,29,51.5,28.7z M54.3,30.2c-0.2-0.1-0.1-0.6,0.3-0.7c0.2,0,1.1-0.1,1.4,0c0.2,0.1,0.4,0.6,0.3,0.7
			C56,30.5,54.6,30.4,54.3,30.2z"/>
		<polygon class="st0" points="55,11.6 54.9,12.4 54.4,13 55.2,13.1 55.8,13.6 55.9,12.8 56.4,12.2 55.6,12.1 		"/>
		<polygon class="st0" points="70.1,46.5 69.4,46 68.6,45.9 69.1,45.3 69.1,44.5 69.8,45 70.6,45 70.1,45.7 		"/>
		<polygon class="st0" points="52.9,46.4 53.6,46 54.4,45.9 53.9,45.3 53.9,44.4 53.2,44.9 52.4,45 52.9,45.6 		"/>
		<path class="st0" d="M48.4,43l0.8-1c0.4-0.4,1-0.4,1.5,0.1c0.6,0.5,0.7,1.1,0.3,1.5l-0.8,1c-0.1,0.1-0.1,0.2,0,0.3l-0.3,0.2
			l-0.8-0.7l0.2-0.3c0.1,0.1,0.2,0.1,0.3,0l0.8-1c0.2-0.2,0.1-0.4-0.1-0.6c-0.3-0.2-0.5-0.2-0.7,0l-0.8,1c-0.1,0.1-0.1,0.2,0,0.3
			l-0.3,0.2L48,43.3l0.2-0.3C48.3,43.1,48.3,43.1,48.4,43z"/>
		<path class="st0" d="M45.8,39.7l1.7-1.3l0.3,0.4l-0.5,1.8c0,0.1-0.1,0.3-0.1,0.3s0.2-0.1,0.2-0.2l0.8-0.6c0.1-0.1,0.1-0.2,0-0.3
			l0.3-0.2l0.5,0.7l-0.2,0.3c-0.1-0.1-0.2-0.1-0.3,0l-1.3,1c-0.1,0.1-0.1,0.2,0,0.3l-0.3,0.2l-0.5-0.6l0.5-1.7
			c0-0.1,0.1-0.3,0.1-0.3s-0.2,0.1-0.3,0.2l-0.7,0.5c-0.1,0.1-0.1,0.2,0,0.3l-0.3,0.2L45.3,40l0.2-0.3
			C45.6,39.8,45.7,39.8,45.8,39.7z"/>
		<path class="st0" d="M46.5,36.4l0.5,0.9l-0.3,0.2c-0.1-0.2-0.1-0.2-0.3-0.1l-1.4,0.7c-0.1,0.1-0.2,0.1-0.1,0.3l-0.4,0.1L44,37.6
			l0.3-0.2c0.1,0.2,0.1,0.2,0.3,0.1l1.4-0.7c0.1-0.1,0.2-0.1,0.1-0.3L46.5,36.4z"/>
		<path class="st0" d="M43.2,33.6l2.4,0.2l0.2,0.7L43.9,36c-0.1,0.1-0.2,0.2-0.1,0.3l-0.4,0l-0.3-1l0.3-0.2c0,0.1,0.1,0.2,0.2,0.1
			l0.9-0.7c0.2-0.1,0.5-0.3,0.5-0.3s-0.4,0-0.5,0l-1.1-0.1c-0.2,0-0.2,0.1-0.1,0.2l-0.4,0l-0.3-0.9l0.3-0.2
			C43,33.6,43,33.6,43.2,33.6z"/>
		<path class="st0" d="M44.9,29.9l0.2,2.1l-0.4,0.1c0-0.2-0.1-0.2-0.2-0.2L43,32.1c-0.2,0-0.2,0.1-0.2,0.2l-0.4,0l-0.2-2l0.7-0.1
			l0.1,0.3c-0.2,0-0.3,0.1-0.2,0.4l0,0.5l0.7-0.1l0-0.4c0-0.2-0.1-0.2-0.2-0.2l0-0.3l0.7-0.1l0.1,0.3c-0.1,0-0.2,0.1-0.2,0.3l0,0.4
			l0.7-0.1l-0.1-0.7c0-0.3-0.1-0.3-0.3-0.3l0-0.3L44.9,29.9z"/>
		<path class="st0" d="M45.2,26.2L45.2,27c-0.4,0.4-1.1,0-1.2,0.5l0,0.3l0.5,0.1c0.2,0,0.2,0,0.2-0.2l0.3,0.1l-0.1,1l-0.4,0
			c0-0.2,0-0.2-0.2-0.2l-1.6-0.2c-0.2,0-0.2,0-0.2,0.2l-0.3-0.1l0.2-1.4c0.1-0.7,0.4-1,0.9-1c0.3,0,0.5,0.2,0.6,0.6
			c0.1-0.3,0.5-0.4,0.6-0.4c0.2,0,0.3-0.1,0.3-0.3l0-0.1L45.2,26.2z M42.8,27.4l0,0.4l0.8,0.1l0-0.4c0-0.3-0.1-0.5-0.3-0.5
			C43,26.9,42.8,27.1,42.8,27.4z"/>
		<path class="st0" d="M45.8,24.5c-0.2,0.5-0.5,0.8-0.6,1l-0.5-0.3l0.1-0.2c0.3,0,0.5-0.3,0.6-0.5c0.1-0.2,0-0.5-0.2-0.5
			c-0.2-0.1-0.3,0.1-0.5,0.5c-0.2,0.4-0.6,0.8-1.1,0.6c-0.5-0.2-0.7-0.7-0.5-1.3c0.1-0.4,0.4-0.8,0.5-0.9l0.5,0.3L44,23.2
			c-0.3,0-0.5,0.3-0.5,0.5c-0.1,0.2,0,0.4,0.2,0.5c0.2,0.1,0.3-0.1,0.5-0.4c0.3-0.5,0.6-0.9,1.2-0.7C45.9,23.3,46,23.9,45.8,24.5z"
			/>
		<path class="st0" d="M47,21.5l-0.5,0.9l-0.4-0.1c0.1-0.2,0-0.2-0.1-0.3l-1.4-0.7c-0.1-0.1-0.2-0.1-0.3,0.1l-0.3-0.2l0.5-0.9
			l0.4,0.1c-0.1,0.2-0.1,0.2,0.1,0.3l1.4,0.7c0.1,0.1,0.2,0.1,0.3-0.1L47,21.5z"/>
		<path class="st0" d="M47.2,17.7c-0.2-0.1-0.3-0.1-0.4,0.1l-0.2,0.2l1.4,1c0.1,0.1,0.2,0.1,0.3,0l0.2,0.3l-0.6,0.8L47.5,20
			c0.1-0.1,0.1-0.2,0-0.3l-1.4-1L46,18.9c-0.2,0.2-0.1,0.3,0,0.5l-0.2,0.2l-0.5-0.5l1.5-2l0.6,0.3L47.2,17.7z"/>
		<path class="st0" d="M51.3,16.4l-0.7,0.7l-0.3-0.2c0.1-0.1,0.1-0.2,0-0.2L50,16.6l-0.7,0.7l0.1,0.2c0.1,0.2,0.1,0.1,0.2,0l0.2,0.3
			l-0.6,0.6l-0.3-0.2C49,18.1,49,18,49,17.9l-0.7-1.6c0-0.1-0.1-0.1-0.2,0l-0.2-0.3l1.1-1l0.3,0.2c-0.1,0.1-0.1,0.2,0,0.2l1.6,0.8
			c0.1,0.1,0.2,0.1,0.3,0L51.3,16.4z M49,16c-0.1-0.1-0.4-0.3-0.4-0.3s0.2,0.3,0.3,0.5l0.3,0.7l0.5-0.5L49,16z"/>
		<path class="st0" d="M52.8,15.5c-0.5,0.3-0.9,0.3-1.1,0.4l-0.2-0.6l0.2-0.1c0.2,0.2,0.6,0.1,0.8,0c0.2-0.1,0.3-0.3,0.2-0.5
			c-0.1-0.2-0.3-0.2-0.7,0c-0.4,0.2-0.9,0.2-1.2-0.2c-0.3-0.5,0-1,0.5-1.3c0.4-0.2,0.8-0.3,1-0.4l0.2,0.6l-0.2,0.1
			c-0.2-0.2-0.5-0.1-0.7,0c-0.2,0.1-0.3,0.3-0.2,0.5c0.1,0.2,0.3,0.1,0.6,0c0.6-0.2,1-0.3,1.4,0.2C53.6,14.6,53.3,15.2,52.8,15.5z"
			/>
		<path class="st0" d="M60.5,11.8c-0.2,0-0.2,0.1-0.2,0.2l0,0.2c0,0.1,0.1,0.2,0.1,0.2l0,0.3c-0.4,0.1-0.5,0.3-1.1,0.3
			c-0.8,0.1-1.5-0.2-1.7-1.2c-0.1-0.9,0.4-1.5,1.3-1.6c0.5-0.1,0.9,0.1,1.1,0.2l-0.1,0.6l-0.2,0c-0.1-0.3-0.4-0.4-0.7-0.3
			c-0.5,0.1-0.7,0.4-0.6,1c0.1,0.6,0.4,0.9,0.8,0.8c0.1,0,0.3-0.1,0.3-0.1l0-0.3c0-0.1-0.1-0.2-0.3-0.2l0,0l0-0.4l1.1-0.1L60.5,11.8
			L60.5,11.8z"/>
		<path class="st0" d="M62.9,13.1c-0.8-0.1-1.4-0.5-1.3-1.5c0.1-1,0.7-1.4,1.5-1.3c0.8,0.1,1.4,0.5,1.3,1.5
			C64.3,12.8,63.7,13.1,62.9,13.1z M63.1,10.7c-0.4,0-0.6,0.2-0.7,0.9c-0.1,0.7,0.1,0.9,0.6,1c0.4,0,0.6-0.2,0.7-0.9
			S63.5,10.8,63.1,10.7z"/>
		<path class="st0" d="M67.4,11.9c0-0.2,0-0.3-0.3-0.4l-0.3-0.1l-0.5,1.7c0,0.1,0,0.2,0.2,0.3l-0.2,0.3l-1-0.3l0-0.4
			c0.2,0,0.2,0,0.3-0.1l0.5-1.6l-0.3-0.1c-0.3-0.1-0.4,0-0.4,0.2l-0.3-0.1l0.3-0.6l2.4,0.6l-0.1,0.7L67.4,11.9z"/>
		<path class="st0" d="M70.3,15.4l-0.9-0.5l0.1-0.4c0.2,0.1,0.2,0,0.3-0.1l0.3-0.5l-0.9-0.5L68.8,14c-0.1,0.1-0.1,0.2,0.1,0.3
			l-0.2,0.3l-0.9-0.5l0.1-0.4c0.2,0.1,0.2,0,0.3-0.1l0.7-1.4C69,12.1,69,12,68.8,12l0.2-0.3l0.9,0.5l-0.1,0.4
			c-0.2-0.1-0.2,0-0.3,0.1L69.3,13l0.9,0.5l0.2-0.4c0.1-0.1,0.1-0.2-0.1-0.3l0.2-0.3l0.9,0.5l-0.1,0.4c-0.2-0.1-0.2,0-0.3,0.1
			l-0.7,1.4c-0.1,0.1-0.1,0.2,0.1,0.3L70.3,15.4z"/>
		<path class="st0" d="M72,16.8c-0.6-0.5-0.8-1.2-0.2-2c0.7-0.8,1.4-0.7,2-0.2c0.6,0.5,0.8,1.2,0.2,2C73.3,17.4,72.7,17.3,72,16.8z
			 M73.5,15c-0.3-0.3-0.6-0.2-1.1,0.3c-0.4,0.5-0.4,0.8-0.1,1.1c0.3,0.3,0.6,0.2,1.1-0.3C73.8,15.5,73.8,15.2,73.5,15z"/>
		<path class="st0" d="M74.5,19.3l-0.8-1l0.2-0.3c0.1,0.1,0.2,0.1,0.3,0l1.2-1c0.1-0.1,0.1-0.2,0-0.3l0.3-0.2l0.8,1
			c0.4,0.5,0.5,1,0.1,1.3c-0.2,0.1-0.5,0.1-0.7,0c0.1,0.3,0,0.6-0.2,0.8C75.4,20,75,19.8,74.5,19.3z M75.2,18.2l-0.6,0.5l0.2,0.3
			c0.2,0.2,0.4,0.2,0.6,0.1c0.2-0.1,0.2-0.4,0-0.6L75.2,18.2z M75.5,17.9l0.2,0.3c0.2,0.2,0.4,0.2,0.5,0.1c0.2-0.1,0.2-0.3,0-0.5
			L76,17.5L75.5,17.9z"/>
		<path class="st0" d="M78.8,22.1l-1.1,0.6c-0.5,0.3-1.1,0-1.4-0.7c-0.3-0.7-0.2-1.3,0.3-1.5l1.1-0.6c0.1-0.1,0.2-0.1,0.1-0.3
			l0.4-0.1l0.5,0.9l-0.3,0.2c-0.1-0.2-0.1-0.2-0.3-0.1l-1.1,0.6c-0.2,0.1-0.3,0.3-0.1,0.6c0.2,0.3,0.4,0.4,0.6,0.3l1.1-0.6
			c0.1-0.1,0.2-0.1,0.1-0.3l0.4-0.1l0.4,0.9l-0.3,0.2C79,22.1,78.9,22,78.8,22.1z"/>
		<path class="st0" d="M77.9,26.7l-0.2-0.8c0.3-0.5,1-0.4,0.9-0.9l-0.1-0.3L78,24.8c-0.1,0-0.2,0.1-0.1,0.3l-0.4,0l-0.3-1l0.3-0.2
			c0,0.2,0.1,0.2,0.3,0.2l1.5-0.4c0.1,0,0.2-0.1,0.1-0.3l0.4,0l0.4,1.3c0.2,0.7,0,1.1-0.5,1.2c-0.3,0.1-0.6,0-0.8-0.3
			c0,0.4-0.3,0.5-0.5,0.6c-0.2,0.1-0.3,0.2-0.2,0.4l0,0.1L77.9,26.7z M79.8,24.7l-0.1-0.4l-0.8,0.2l0.1,0.4c0.1,0.3,0.3,0.4,0.5,0.3
			C79.7,25.2,79.9,25,79.8,24.7z"/>
		<path class="st0" d="M79.2,30c0-0.2-0.1-0.2-0.2-0.2l-0.2,0c-0.1,0-0.2,0-0.2,0.1l-0.3-0.1c0-0.4-0.2-0.5-0.2-1.1
			c0-0.8,0.3-1.5,1.3-1.6c0.9,0,1.4,0.5,1.5,1.4c0,0.5-0.2,0.9-0.2,1.1L80,29.6l0-0.2c0.3-0.1,0.4-0.3,0.4-0.6c0-0.5-0.3-0.8-1-0.7
			c-0.6,0-0.9,0.3-0.9,0.8c0,0.1,0,0.3,0.1,0.4l0.3,0c0.1,0,0.2,0,0.2-0.2l0,0l0.4,0.1l0.1,1.1L79.2,30L79.2,30z"/>
		<path class="st0" d="M77.7,33.1L78,31l0.4,0c0,0.2,0,0.2,0.2,0.2l1.6,0.2c0.2,0,0.2,0,0.2-0.2l0.3,0.1l-0.3,2l-0.6-0.1l0-0.3
			c0.2,0,0.3,0,0.3-0.4l0.1-0.5l-0.7-0.1l-0.1,0.4c0,0.2,0,0.3,0.1,0.3l-0.1,0.3L78.8,33l0-0.3c0.1,0,0.2,0,0.2-0.2l0.1-0.4L78.4,32
			l-0.1,0.6c0,0.3,0,0.3,0.2,0.4l-0.1,0.3L77.7,33.1z"/>
		<path class="st0" d="M78.6,37.3l-2-0.8l0.2-0.5l1.9-0.5c0.1,0,0.4-0.1,0.4-0.1s-0.2-0.1-0.3-0.1L77.8,35c-0.1-0.1-0.2,0-0.3,0.1
			l-0.3-0.2l0.3-0.8l0.4,0.1c-0.1,0.2,0,0.2,0.1,0.3l1.5,0.6c0.1,0.1,0.2,0,0.3-0.1l0.3,0.2l-0.3,0.7l-1.7,0.5
			c-0.1,0-0.4,0.1-0.4,0.1s0.2,0.1,0.3,0.1l0.8,0.3c0.1,0.1,0.2,0,0.3-0.1l0.3,0.2l-0.3,0.8l-0.4-0.1C78.8,37.4,78.8,37.3,78.6,37.3
			z"/>
		<path class="st0" d="M75.5,38.3c0.3-0.5,0.6-0.7,0.8-0.8l0.4,0.4l-0.1,0.2c-0.3-0.1-0.6,0.1-0.7,0.4c-0.1,0.2-0.2,0.4,0,0.6
			c0.2,0.1,0.3,0,0.6-0.3c0.3-0.3,0.7-0.6,1.2-0.3c0.5,0.3,0.5,0.9,0.1,1.4c-0.3,0.4-0.6,0.6-0.7,0.7l-0.4-0.4l0.1-0.2
			c0.3,0,0.5-0.1,0.6-0.3c0.1-0.2,0.1-0.4,0-0.5c-0.2-0.1-0.3,0-0.5,0.2c-0.4,0.5-0.8,0.7-1.3,0.4C75.1,39.4,75.2,38.8,75.5,38.3z"
			/>
		<path class="st0" d="M73.6,40.9l0.7-0.8l0.3,0.2c-0.1,0.1-0.1,0.2,0,0.3l1.2,1.1c0.1,0.1,0.2,0.1,0.3,0l0.2,0.3l-0.7,0.8l-0.3-0.2
			c0.1-0.1,0.1-0.2,0-0.3l-1.2-1.1c-0.1-0.1-0.2-0.1-0.3,0L73.6,40.9z"/>
		<path class="st0" d="M71.9,42.4c0.4-0.3,0.8-0.4,1-0.5l0.3,0.6l-0.2,0.2c-0.3-0.2-0.6-0.1-0.8,0.1c-0.2,0.1-0.3,0.4-0.1,0.5
			c0.1,0.2,0.3,0.1,0.7-0.1c0.4-0.2,0.9-0.3,1.2,0.1c0.3,0.4,0.2,1-0.3,1.4c-0.4,0.3-0.7,0.4-0.9,0.5l-0.2-0.5l0.2-0.2
			c0.3,0.1,0.5,0,0.7-0.1c0.2-0.2,0.3-0.3,0.1-0.5c-0.1-0.1-0.3-0.1-0.6,0.1c-0.5,0.3-1,0.4-1.4-0.1C71.1,43.3,71.4,42.8,71.9,42.4z
			"/>
		<path class="st0" d="M57.1,48.4L55.7,48l0-0.4l0.2,0.1c0.2,0.1,0.2,0,0.3-0.1l0.4-1.4c-0.1,0.1-0.3,0.1-0.5,0l0.1-0.4
			c0.3,0,0.5,0,0.8-0.3l0.6,0.2l-0.6,2.1c0,0.1,0,0.2,0.2,0.3l0.2,0L57.1,48.4z"/>
		<path class="st0" d="M59.7,48.9c-0.8-0.1-1.2-0.4-1.2-0.9c0-0.4,0.4-0.6,0.7-0.7c-0.3-0.2-0.5-0.4-0.5-0.7c0-0.4,0.5-0.6,1.2-0.6
			c0.7,0.1,1.1,0.4,1.1,0.8c0,0.3-0.3,0.5-0.6,0.6c0.3,0.2,0.6,0.4,0.6,0.8C60.9,48.7,60.4,49,59.7,48.9z M59.8,47.6
			c-0.3,0.1-0.5,0.3-0.6,0.5c0,0.2,0.2,0.4,0.5,0.4c0.3,0,0.5-0.1,0.5-0.3C60.3,47.9,60.1,47.8,59.8,47.6z M59.9,46.4
			c-0.2,0-0.4,0.1-0.4,0.2c0,0.2,0.1,0.3,0.4,0.5c0.2-0.1,0.4-0.2,0.4-0.4C60.3,46.6,60.2,46.5,59.9,46.4z"/>
		<path class="st0" d="M63.1,48.9c-0.2,0-0.5,0-0.6-0.1l0-0.4c0.1,0,0.3,0.1,0.5,0c0.5,0,0.8-0.3,0.8-0.8c-0.1,0.1-0.3,0.3-0.6,0.3
			c-0.7,0.1-1.1-0.3-1.1-0.8c-0.1-0.6,0.4-1,1.1-1.1c0.8-0.1,1.3,0.4,1.3,1.1C64.5,48.1,64.2,48.8,63.1,48.9z M63.2,46.5
			c-0.3,0-0.5,0.3-0.5,0.6c0,0.3,0.2,0.5,0.5,0.5c0.3,0,0.5-0.2,0.5-0.6C63.7,46.7,63.5,46.4,63.2,46.5z"/>
		<path class="st0" d="M67.4,48l-1.4,0.4l-0.2-0.3l0.2,0c0.2,0,0.2-0.1,0.2-0.3l-0.4-1.4c-0.1,0.1-0.2,0.2-0.5,0.3l-0.1-0.4
			c0.3-0.1,0.4-0.3,0.5-0.7l0.6-0.1l0.6,2.1c0,0.1,0.1,0.2,0.3,0.1l0.2,0L67.4,48z"/>
	</g>
	<g>
		<path class="st0" d="M11.8,65.6c0-0.5,0-0.8,0-2.1c0-1,0-1.8,0-3l-0.1-0.1l-1.2-0.1V60h3.7v0.4l-1,0.1l-0.1,0.1c0,1,0,3.1,0,5
			c0,1.6,0.4,2.7,2.1,2.7c1.8,0,2.3-1,2.3-3c0-1.7,0-3.5-0.1-4.8l-0.1-0.1l-1.2-0.1V60h3.4v0.4l-1.3,0.1l-0.1,0.1c0,1.4,0,3.3,0,4.9
			c0,2.2-1,3.4-3.2,3.4C12.9,68.8,11.8,67.8,11.8,65.6z"/>
		<path class="st0" d="M20.7,68.3l1.3-0.1l0.1-0.1c0-1.4,0-2.4,0-3.7c0-1.3,0-2,0-3.9L22,60.5l-1.3-0.1V60h2.5
			c1.6,2.2,3.4,4.8,4.7,6.6h0c0-2.5-0.1-4.8-0.1-6.1l-0.1-0.1l-1.2-0.1V60H30v0.4l-1.3,0.1l-0.1,0.1c0,1.4,0,2.4,0,5.6v2.6H28
			c-1.6-2.3-3.5-4.9-5.1-7.3h0c0,3,0.1,5.4,0.1,6.7l0.1,0.1l1.2,0.1v0.4h-3.4V68.3z"/>
		<path class="st0" d="M31.1,68.3l1.3-0.1l0.1-0.1c0-0.4,0-2.1,0-3.9c0-1.7,0-3.3,0-3.7l-0.1-0.1l-1.3-0.1V60H35v0.4l-1.3,0.1
			l-0.1,0.1c0,0.3,0,2.1,0,3.9c0,1.7,0,3.3,0,3.7l0.1,0.1l1.3,0.1v0.4h-3.9V68.3z"/>
		<path class="st0" d="M36.7,60.5l-0.8,0V60h3.4v0.4l-1.2,0.1l-0.1,0.1c0.7,1.9,1.6,4.1,2.4,6.3h0c0.6-1.8,1.7-4.9,2.2-6.3l0,0
			l-1-0.1V60h2.9v0.4l-0.8,0c-0.7,1.7-2.2,5.7-3.2,8.4h-0.3C38.8,65.6,37.7,62.8,36.7,60.5z"/>
		<path class="st0" d="M45.4,68.3l1.3-0.1l0.1-0.1c0-0.6,0-2.1,0-3.9c0-1.7,0-3.2,0-3.7l-0.1-0.1l-1.3-0.1V60H51l0.5-0.2h0.2
			l0.1,2.8h-0.3c-0.5-1.3-0.9-1.9-1.1-2L48,60.5l0,0.1c0,0.6,0,2,0,3.4c0.6,0,1.8,0,2.2-0.1l0.1-0.1l0.5-0.9h0.2c0,0.4,0,0.9,0,1.3
			c0,0.3,0,1.1,0,1.4h-0.2l-0.5-1.1l-0.1-0.1c-0.4,0-1.6,0-2.2,0c0,1.6,0,3,0,3.6l0,0.1l2.6-0.1c0.2,0,0.8-0.5,1.3-2.1h0.3
			c-0.2,2.5-0.2,2.7-0.4,2.7h-6.4V68.3z"/>
		<path class="st0" d="M53.7,68.3l1.3-0.1l0.1-0.1c0-0.4,0-2.1,0-3.9c0-1.7,0-3.1,0-3.7L55,60.5l-1.3-0.1V60c1.2,0,2.4,0,3.1,0
			c1,0,1.6,0.1,2.1,0.2c1.2,0.4,1.8,1.2,1.8,2.1c0,1.3-0.9,1.9-1.9,2.2v0c0.3,0.4,0.9,1.4,1.7,2.8c0.3,0.6,0.6,1,1.1,1l0.3,0v0.4
			h-1.9l-0.1-0.1c-0.5-1-0.8-1.8-1.6-3.2c-0.2-0.3-0.3-0.5-0.5-0.8c-0.5,0.1-0.9,0.1-1.3,0.1c0,1.5,0,3,0,3.4l0.1,0.1l1.2,0.1v0.4
			h-3.9V68.3z M59.3,62.2c0-0.7-0.3-1.2-0.9-1.5c-0.3-0.2-0.7-0.2-1.5-0.2h-0.4l0,0c0,0.6,0,2.2,0,3.8
			C58.6,64.2,59.3,63.5,59.3,62.2z"/>
		<path class="st0" d="M63.4,66h0.3c0.5,1.6,1.2,2.3,2.1,2.3c1.1,0,1.7-0.7,1.7-1.6c0-2.2-4-1.7-4-4.5c0-1.2,0.9-2.3,2.6-2.3
			c0.8,0,1.5,0.3,1.7,0.3l0.4-0.4h0.2l0.1,2.8h-0.3c-0.5-1.6-1.3-2.2-2.1-2.2c-0.8,0-1.4,0.5-1.4,1.4c0,2.2,4,1.8,4,4.5
			c0,1.3-1,2.6-3,2.6c-0.6,0-1.2-0.1-1.8-0.5l-0.3,0.5h-0.3V66z"/>
		<path class="st0" d="M70.4,68.3l1.3-0.1l0.1-0.1c0-0.4,0-2.1,0-3.9c0-1.7,0-3.3,0-3.7l-0.1-0.1l-1.3-0.1V60h3.9v0.4L73,60.5
			L73,60.6c0,0.3,0,2.1,0,3.9c0,1.7,0,3.3,0,3.7l0.1,0.1l1.3,0.1v0.4h-3.9V68.3z"/>
		<path class="st0" d="M77.2,68.3l1.4-0.1l0.1-0.1c0-0.5,0-2.1,0-3.9c0-1.7,0-3.2,0-3.6l0-0.1H77c-0.3,0-0.6,0.5-1.1,2h-0.3l0.1-2.8
			H76l0.4,0.2h5.8l0.4-0.2h0.2l0.1,2.8h-0.3c-0.5-1.6-0.9-2-1.1-2h-1.5l0,0.1c0,0.3,0,2.1,0,3.8c0,1.7,0,3.3,0,3.7l0.1,0.1l1.4,0.1
			v0.4h-4.2V68.3z"/>
		<path class="st0" d="M86.3,68.3l1.3-0.1l0.1-0.1c0-1,0-1.6,0-3.3c-1.1-1.6-2.2-3.5-2.8-4.4l-0.9,0V60h3.3v0.4l-0.9,0.1l-0.1,0.1
			c0.6,1.1,1.5,2.5,2.2,3.6h0c0.7-1.3,1.5-2.8,2-3.6l0,0l-0.9-0.1V60h2.8v0.4l-0.8,0c-0.7,1.1-1.7,2.8-2.6,4.3c0,1.8,0,2.2,0,3.4
			l0.1,0.1l1.3,0.1v0.4h-4V68.3z"/>
		<path class="st0" d="M96.4,64.5c0-2.9,1.8-4.6,4.1-4.6c2.6,0,4.1,1.8,4.1,4.4c0,2.9-1.8,4.6-4.1,4.6C97.9,68.8,96.4,67,96.4,64.5z
			 M103.2,64.4c0-2.6-1-3.9-2.7-3.9c-1.6,0-2.7,1.3-2.7,3.9c0,2.6,1,3.9,2.7,3.9C102.1,68.3,103.2,67,103.2,64.4z"/>
		<path class="st0" d="M106.1,68.3l1.3-0.1l0.1-0.1c0-0.5,0-2.1,0-3.9c0-1.7,0-3.3,0-3.7l-0.1-0.1l-1.3-0.1V60h5.7l0.5-0.2h0.2
			l0.1,2.8h-0.3c-0.5-1.3-0.9-2-1.1-2l-2.5-0.1l0,0.1c0,0.4,0,2,0,3.4c0.6,0,1.8,0,2.2-0.1l0.1-0.1l0.5-0.9h0.2c0,0.4,0,0.9,0,1.3
			c0,0.3,0,1.2,0,1.5h-0.2l-0.5-1.2l-0.1-0.1c-0.4,0-1.5,0-2.1,0c0,1.6,0,3.1,0,3.6l0.1,0.1l1.4,0.1v0.4h-4.1V68.3z"/>
		<path class="st0" d="M14.7,79.9c0-2.8,1.9-4.5,4.4-4.5c1,0,1.5,0.2,2,0.3l0.4-0.4h0.2l0.1,2.8h-0.3c-0.6-1.7-1.6-2.2-2.5-2.2
			c-1.5,0-3,1.1-3,3.8c0,2.1,1.1,4,3.3,4c0.6,0,1.3-0.2,1.3-0.4c0-0.4,0-1.6,0-2.6l-0.1-0.1l-1.3-0.1v-0.4H23v0.4L22,80.7L22,80.8
			c0,0.8,0,1.8,0,2.8c-0.2,0.3-1.4,0.8-2.7,0.8C16.6,84.4,14.7,82.7,14.7,79.9z"/>
		<path class="st0" d="M24.6,80c0-2.9,1.8-4.6,4.1-4.6c2.6,0,4.1,1.8,4.1,4.4c0,2.9-1.8,4.6-4.1,4.6C26.1,84.4,24.6,82.5,24.6,80z
			 M31.3,79.9c0-2.6-1-3.9-2.7-3.9c-1.6,0-2.7,1.3-2.7,3.9c0,2.6,1,3.9,2.7,3.9C30.3,83.8,31.3,82.5,31.3,79.9z"/>
		<path class="st0" d="M36,83.8l1.4-0.1l0.1-0.1c0-0.5,0-2.1,0-3.9c0-1.7,0-3.2,0-3.6l0-0.1h-1.5c-0.3,0-0.6,0.5-1.1,2h-0.3l0.1-2.8
			h0.2l0.4,0.2H41l0.4-0.2h0.2l0.1,2.8h-0.3c-0.5-1.6-0.9-2-1.1-2h-1.5l0,0.1c0,0.3,0,2.1,0,3.8c0,1.7,0,3.3,0,3.7l0.1,0.1l1.4,0.1
			v0.4H36V83.8z"/>
		<path class="st0" d="M43,83.8l1.3-0.1l0.1-0.1c0-0.5,0-2.1,0-3.9c0-1.7,0-3.3,0-3.7L44.3,76L43,75.9v-0.4h3.7v0.4L45.7,76
			l-0.1,0.1c0,0.4,0,1.9,0,3.4h4.3c0-1.6,0-3.1,0-3.4L49.8,76l-1.1-0.1v-0.4h3.7v0.4L51.2,76l-0.1,0.1c0,0.4,0,2.1,0,3.9
			c0,1.7,0,3.2,0,3.7l0.1,0.1l1.3,0.1v0.4h-3.7v-0.4l1.1-0.1l0.1-0.1c0-0.4,0-2,0-3.6h-4.3c0,1.6,0,2.8,0,3.6l0.1,0.1l1.1,0.1v0.4
			H43V83.8z"/>
		<path class="st0" d="M53.6,83.8l1.3-0.1l0.1-0.1c0-0.6,0-2.1,0-3.9c0-1.7,0-3.2,0-3.7L54.8,76l-1.3-0.1v-0.4h5.7l0.5-0.2H60
			l0.1,2.8h-0.3c-0.5-1.3-0.9-1.9-1.1-2L56.2,76l0,0.1c0,0.6,0,2,0,3.4c0.6,0,1.8,0,2.2-0.1l0.1-0.1l0.5-0.9h0.2c0,0.4,0,0.9,0,1.3
			c0,0.3,0,1.1,0,1.4h-0.2l-0.5-1.1l-0.1-0.1c-0.4,0-1.6,0-2.2,0c0,1.6,0,3,0,3.6l0,0.1l2.6-0.1c0.2,0,0.8-0.5,1.3-2.1h0.3
			c-0.2,2.5-0.2,2.7-0.4,2.7h-6.4V83.8z"/>
		<path class="st0" d="M61.9,83.8l1.3-0.1l0.1-0.1c0-1.4,0-2.4,0-3.7c0-1.3,0-2,0-3.9L63.2,76l-1.3-0.1v-0.4h2.5
			c1.6,2.2,3.4,4.8,4.7,6.6h0c0-2.5-0.1-4.8-0.1-6.1L69,76l-1.2-0.1v-0.4h3.4v0.4L69.9,76l-0.1,0.1c0,1.4,0,2.4,0,5.6v2.6h-0.6
			c-1.6-2.3-3.5-4.9-5.1-7.3h0c0,3,0.1,5.4,0.1,6.7l0.1,0.1l1.2,0.1v0.4h-3.4V83.8z"/>
		<path class="st0" d="M72.3,83.8l1.3-0.1l0.1-0.1c0-0.5,0-2.1,0-3.9c0-1.7,0-3.2,0-3.7L73.6,76l-1.3-0.1v-0.4c1,0,2.1,0,2.8,0
			c0.9,0,1.7,0.1,2.2,0.3c1,0.3,1.6,1,1.6,1.9c0,1.1-0.7,1.8-1.6,2v0c1.4,0.1,2.2,0.9,2.2,1.9c0,1.8-1.6,2.7-4.1,2.7
			c-0.8,0-2.2,0-3.2,0V83.8z M75.7,79.5c1.5,0,1.9-0.7,1.9-1.7c0-0.7-0.2-1.2-0.8-1.5C76.5,76.1,76,76,75.3,76c-0.1,0-0.2,0-0.3,0
			l-0.1,0.1c0,0.7-0.1,1.9,0,3.4H75.7z M78.2,81.7c0-1.2-0.8-1.7-2-1.7h-1.4c0,1.6,0,2.9,0,3.6l0.1,0.1c0.2,0,0.5,0,0.6,0
			C77.4,83.7,78.2,83,78.2,81.7z"/>
		<path class="st0" d="M82.4,81.1c0-0.5,0-0.8,0-2.1c0-1,0-1.8,0-3L82.3,76l-1.2-0.1v-0.4h3.7v0.4l-1,0.1l-0.1,0.1c0,1,0,3.1,0,5
			c0,1.6,0.4,2.7,2.1,2.7c1.8,0,2.3-1,2.3-3c0-1.7,0-3.5-0.1-4.8L88,76l-1.2-0.1v-0.4h3.4v0.4L88.9,76l-0.1,0.1c0,1.4,0,3.3,0,4.9
			c0,2.2-1,3.4-3.2,3.4C83.5,84.4,82.4,83.3,82.4,81.1z"/>
		<path class="st0" d="M91.3,83.8l1.3-0.1l0.1-0.1c0-0.4,0-2.1,0-3.9c0-1.7,0-3.1,0-3.7L92.6,76l-1.3-0.1v-0.4c1.2,0,2.4,0,3.1,0
			c1,0,1.6,0.1,2.1,0.2c1.2,0.4,1.8,1.2,1.8,2.1c0,1.3-0.9,1.9-1.9,2.2v0c0.3,0.4,0.9,1.4,1.7,2.8c0.3,0.6,0.6,1,1.1,1l0.3,0v0.4
			h-1.9l-0.1-0.1c-0.5-1-0.8-1.8-1.6-3.2c-0.2-0.3-0.3-0.5-0.5-0.8c-0.5,0.1-0.9,0.1-1.3,0.1c0,1.5,0,3,0,3.4l0.1,0.1l1.2,0.1v0.4
			h-3.9V83.8z M96.8,77.8c0-0.7-0.3-1.2-0.9-1.5c-0.3-0.2-0.7-0.2-1.5-0.2H94l0,0c0,0.6,0,2.2,0,3.8C96.2,79.7,96.8,79,96.8,77.8z"
			/>
		<path class="st0" d="M100.6,79.9c0-2.8,1.9-4.5,4.4-4.5c1,0,1.5,0.2,2,0.3l0.4-0.4h0.2l0.1,2.8h-0.3c-0.6-1.7-1.6-2.2-2.5-2.2
			c-1.5,0-3,1.1-3,3.8c0,2.1,1.1,4,3.3,4c0.6,0,1.3-0.2,1.3-0.4c0-0.4,0-1.6,0-2.6l-0.1-0.1l-1.3-0.1v-0.4h3.6v0.4l-0.9,0.1
			l-0.1,0.1c0,0.8,0,1.8,0,2.8c-0.2,0.3-1.4,0.8-2.7,0.8C102.5,84.4,100.6,82.7,100.6,79.9z"/>
	</g>
</g>
</svg>
